<svg width="97" height="101" viewBox="0 0 97 101" fill="none" xmlns="http://www.w3.org/2000/svg">
<path fill-rule="evenodd" clip-rule="evenodd" d="M84.4805 16.895C75.5163 6.21048 63.4736 0.868195 48.3522 0.868195C34.9512 0.868195 23.6328 5.21446 14.397 13.907C4.799 23.0522 0 35.7289 0 51.9368C0 66.0621 3.89353 77.7427 11.6806 86.9785C15.5875 91.5887 20.0844 95.2043 25.1714 97.8252L33.1216 75.6246C32.9443 75.4296 32.7695 75.2302 32.597 75.0263C28.0696 69.5935 25.8059 61.8517 25.8059 51.801C25.8059 43.199 27.5716 36.2721 31.1029 31.0204C35.1776 24.8632 40.882 21.7846 48.2164 21.7846C54.5547 21.7846 59.6706 24.0935 63.5641 28.7114C68.0915 33.9632 70.3551 41.5239 70.3551 51.3935C70.3551 61.082 68.4084 68.6427 64.5148 74.0756C64.2614 74.4233 64.0016 74.7597 63.7355 75.0848L71.7302 97.4095C75.0912 95.5654 78.2095 93.2655 81.085 90.5099C91.0452 81.0024 96.0252 68.1447 96.0252 51.9368C96.0252 37.902 92.177 26.2214 84.4805 16.895Z" fill="#FFAF19"/>
<path d="M47.206 29.7542L47.0737 32.8014H50.4479L50.3155 29.7542H47.206ZM46.9579 38.8306L46.7429 43.7061H50.7787L50.5636 38.8306H46.9579ZM46.6436 49.7353L46.3128 57.0486H51.2087L50.8779 49.7353H46.6436ZM46.1805 66.5167L45.7836 75.6584H51.738L51.341 66.5167H46.1805ZM45.6347 82.9064L45.155 87.4555H52.3665L51.8869 82.9064H45.6347Z" fill="#333333"/>
<path d="M50.3407 46.8012C50.2031 46.5337 49.9913 46.3088 49.729 46.1515C49.4667 45.9942 49.1644 45.9109 48.8559 45.9109C48.5475 45.9109 48.2452 45.9942 47.9829 46.1515C47.7206 46.3088 47.5088 46.5337 47.3712 46.8012L39.2176 62.5987C39.0562 62.8967 38.9955 63.2362 39.0439 63.5695C39.0924 63.9027 39.2476 64.2127 39.4876 64.4559C39.7277 64.6992 40.0405 64.8632 40.382 64.925C40.7234 64.9868 41.0763 64.9432 41.3908 64.8004L48.8559 61.6827L56.3211 64.8004C56.6333 64.9305 56.9793 64.9646 57.3122 64.898C57.6451 64.8314 57.9489 64.6673 58.1823 64.428C58.4158 64.1886 58.5678 63.8856 58.6176 63.5599C58.6675 63.2341 58.6128 62.9014 58.4611 62.6068L50.3407 46.8012Z" fill="#FFAF19"/>
<path d="M50.3407 46.8012C50.2031 46.5337 49.9913 46.3088 49.729 46.1515C49.4667 45.9942 49.1644 45.9109 48.8559 45.9109C48.5475 45.9109 48.2452 45.9942 47.9829 46.1515C47.7206 46.3088 47.5088 46.5337 47.3712 46.8012L39.2176 62.5987C39.0562 62.8967 38.9955 63.2362 39.0439 63.5695C39.0924 63.9027 39.2476 64.2127 39.4876 64.4559C39.7277 64.6992 40.0405 64.8632 40.382 64.925C40.7234 64.9868 41.0763 64.9433 41.3908 64.8004L48.8559 61.6827L56.3211 64.8004C56.6333 64.9305 56.9793 64.9646 57.3122 64.898C57.6451 64.8314 57.9488 64.6673 58.1823 64.428C58.4158 64.1886 58.5678 63.8856 58.6176 63.5599C58.6675 63.2341 58.6128 62.9014 58.4611 62.6068L50.3407 46.8012ZM49.5112 58.4605C49.3042 58.3743 49.0813 58.3298 48.8559 58.3298C48.6306 58.3298 48.4077 58.3743 48.2007 58.4605L44.2109 60.1158L48.8559 51.1081L53.5009 60.1158L49.5112 58.4605Z" fill="#333333"/>
<path d="M47.9128 33.4662H48.2192L24.0158 100.868H10.229L47.9128 33.4662Z" fill="#333333"/>
<path d="M49.1379 33.4662H48.8316L73.035 100.868H86.8218L49.1379 33.4662Z" fill="#333333"/>
</svg>
